<?xml version="1.0" encoding="utf-8"?>
<!-- Generator: Adobe Illustrator 16.0.0, SVG Export Plug-In . SVG Version: 6.00 Build 0)  -->
<!DOCTYPE svg PUBLIC "-//W3C//DTD SVG 1.1//EN" "http://www.w3.org/Graphics/SVG/1.1/DTD/svg11.dtd">
<svg version="1.1" id="Layer_1" xmlns="http://www.w3.org/2000/svg" xmlns:xlink="http://www.w3.org/1999/xlink" x="0px" y="0px"
	 width="200px" height="70px" viewBox="0 0 200 70" enable-background="new 0 0 200 70" xml:space="preserve">
<g id="Layer_x0020_3">
	<g>
		<path fill="#010101" d="M111.825,49.041c0.396-3.299,0.277-3.783,2.734-3.248l0.624,0.055c1.89,0.086,4.36-0.305,5.812-0.978
			c3.125-1.451,4.979-3.872,1.897-3.236c-7.03,1.45-7.513-0.93-7.513-0.93c7.422-11.014,10.525-24.994,7.848-28.417
			c-7.306-9.335-19.951-4.92-20.162-4.805l-0.068,0.011c-1.389-0.288-2.943-0.459-4.689-0.488c-3.181-0.051-5.595,0.835-7.425,2.223
			c0,0-22.559-9.293-21.509,11.688c0.223,4.463,6.397,33.774,13.762,24.92c2.692-3.236,5.293-5.973,5.293-5.973
			c1.292,0.857,2.838,1.295,4.46,1.138l0.125-0.107c-0.039,0.402-0.021,0.796,0.05,1.262c-1.896,2.119-1.339,2.491-5.132,3.272
			c-3.837,0.79-1.583,2.199-0.111,2.566c1.784,0.446,5.912,1.079,8.702-2.826l-0.111,0.444c0.744,0.596,0.693,4.28,0.799,6.912
			c0.105,2.632,0.282,5.088,0.818,6.537c0.536,1.448,1.169,5.178,6.154,4.11C108.351,62.278,111.536,60.993,111.825,49.041"/>
		<path fill="#010101" d="M102.542,65.974L102.542,65.974c-2.133,0-3.922-0.801-5.177-2.318c-0.957-1.157-1.377-2.443-1.654-3.295
			c-0.049-0.152-0.097-0.296-0.132-0.391c-0.637-1.721-0.852-4.178-0.979-7.341c-0.019-0.467-0.033-0.967-0.046-1.476
			c-0.009-0.31-0.019-0.667-0.031-1.042c-1.253,0.55-2.639,0.831-4.132,0.831c-1.032,0-2.109-0.14-3.204-0.413
			c-0.743-0.186-1.488-0.5-2.098-0.884c-0.479-0.303-0.84-0.628-1.111-0.955c-1.126,0.94-2.346,1.416-3.642,1.416
			c-3.98,0-7.213-4.338-10.174-13.653c-1.932-6.078-3.281-13.069-3.398-15.406c-0.277-5.541,0.951-9.788,3.65-12.627
			c2.434-2.558,5.906-3.855,10.32-3.855c4.001,0,7.838,1.092,9.798,1.754c2.159-1.281,4.678-1.928,7.51-1.928
			c0.104,0,0.205,0,0.309,0.001c1.582,0.026,3.09,0.165,4.492,0.412c1.459-0.452,4.221-1.076,7.384-1.076
			c6.293,0,11.5,2.403,15.058,6.949c1.323,1.69,2.455,5.426,0.338,13.626c-1.311,5.07-3.586,10.459-6.384,15.182
			c0.874-0.023,1.923-0.161,3.126-0.41c0.516-0.105,0.969-0.157,1.385-0.157c2.023,0,3.023,1.284,3.267,2.384
			c0.292,1.32-0.287,2.632-1.72,3.898c-0.854,0.754-1.99,1.479-3.2,2.041c-1.612,0.748-4.115,1.231-6.376,1.231
			c-0.223,0-0.443-0.004-0.655-0.014l-0.11-0.007l-0.424-0.037c-0.012,0.108-0.025,0.217-0.037,0.322
			c-0.02,0.157-0.037,0.32-0.059,0.492c-0.158,6.094-1.035,9.96-2.838,12.527c-1.908,2.715-4.544,3.473-6.865,3.971
			C103.964,65.891,103.228,65.974,102.542,65.974z M98.044,43.572c1.492,1.193,1.621,3.37,1.734,7.436
			c0.012,0.488,0.025,0.965,0.044,1.413c0.054,1.328,0.178,4.438,0.657,5.732c0.071,0.192,0.135,0.383,0.2,0.586
			c0.552,1.689,0.847,2.008,1.862,2.008l0,0c0.318,0,0.688-0.044,1.094-0.131c1.934-0.414,2.924-0.781,3.684-1.864
			c1.139-1.621,1.775-4.91,1.895-9.775l0.002-0.123l0.016-0.124c0.025-0.21,0.049-0.409,0.07-0.597
			c0.148-1.277,0.246-2.12,0.568-2.898c0.588-1.424,1.83-2.24,3.41-2.24c0.172,0,0.35,0.008,0.543,0.027
			c-0.736-0.751-0.949-1.527-1.005-1.799l-0.217-1.072l0.611-0.908c3.238-4.804,5.913-10.711,7.338-16.207
			c1.599-6.162,0.894-8.774,0.618-9.137c-2.567-3.281-6.249-4.946-10.942-4.946c-3.104,0-5.569,0.75-6.086,0.92l-0.194,0.104
			l-0.979,0.181l-0.501-0.104c-1.271-0.265-2.685-0.409-4.201-0.434c-0.075-0.002-0.149-0.003-0.224-0.003
			c-2.252,0-4.078,0.555-5.581,1.693l-1.192,0.904l-1.382-0.569c-0.043-0.018-4.589-1.854-9.153-1.854
			c-2.927,0-5.125,0.751-6.534,2.23c-1.674,1.762-2.42,4.71-2.217,8.764c0.082,1.626,1.186,7.729,3.007,13.6
			c2.502,8.066,4.711,10.307,5.338,10.489c0.079-0.032,0.356-0.178,0.798-0.708c2.715-3.267,5.299-5.988,5.408-6.104l1.512-1.591
			l1.828,1.216c0.625,0.414,1.32,0.66,2.029,0.719l4.34-3.704l-0.629,6.447c-0.012,0.122-0.018,0.289,0.032,0.606l0.189,1.221
			l-0.824,0.921c-0.008,0.008-0.015,0.017-0.022,0.025l2.027,0.936L98.044,43.572z"/>
	</g>
	<path fill="#356891" d="M122.894,41.634c-7.031,1.45-7.514-0.931-7.514-0.931c7.422-11.014,10.525-24.994,7.848-28.417
		c-7.305-9.334-19.951-4.919-20.162-4.804l-0.068,0.011c-1.389-0.288-2.943-0.459-4.689-0.488c-3.182-0.051-5.595,0.833-7.425,2.223
		c0,0-22.559-9.293-21.51,11.688c0.223,4.463,6.397,33.774,13.762,24.92c2.692-3.236,5.292-5.973,5.292-5.973
		c1.292,0.857,2.839,1.295,4.459,1.138l0.126-0.107c-0.039,0.402-0.021,0.796,0.051,1.262c-1.898,2.119-1.34,2.491-5.133,3.272
		c-3.838,0.79-1.583,2.199-0.111,2.566c1.785,0.446,5.913,1.079,8.703-2.826l-0.111,0.444c0.743,0.596,1.266,3.874,1.178,6.845
		c-0.088,2.972-0.146,5.011,0.439,6.604s1.17,5.178,6.155,4.11c4.167-0.894,6.325-3.208,6.626-7.067
		c0.213-2.742,0.695-2.336,0.725-4.79l0.389-1.161c0.445-3.719,0.07-4.919,2.637-4.361l0.624,0.056
		c1.889,0.085,4.36-0.305,5.813-0.979C124.12,43.419,125.974,40.998,122.894,41.634L122.894,41.634z"/>
	<path fill="#FFFFFF" d="M102.808,64.351c-4.195,0-5.523-3.321-6.067-4.679c-0.796-1.991-0.969-9.437-0.788-15.93
		c0.014-0.481,0.413-0.854,0.896-0.848c0.481,0.015,0.86,0.415,0.846,0.896c-0.201,7.231,0.084,13.781,0.664,15.234
		c0.9,2.249,2.266,4.217,6.123,3.391c3.72-0.798,5.043-2.138,5.662-5.732c0.475-2.748,1.412-10.57,1.528-12.115
		c0.036-0.48,0.454-0.839,0.935-0.805c0.479,0.037,0.838,0.455,0.803,0.936c-0.121,1.608-1.055,9.425-1.549,12.28
		c-0.735,4.266-2.637,6.202-7.014,7.141C104.101,64.28,103.423,64.351,102.808,64.351z"/>
	<path fill="#FFFFFF" d="M80.28,48.275c-0.404,0-0.771-0.073-1.09-0.181c-2.72-0.906-5.306-5.318-7.684-13.11
		c-1.807-5.921-2.952-12.104-3.053-14.113c-0.299-5.973,1.243-10.201,4.581-12.565c2.798-1.983,6.719-2.585,11.653-1.79
		c3.599,0.58,6.374,1.704,6.49,1.751c0.446,0.183,0.659,0.69,0.477,1.137c-0.182,0.444-0.69,0.657-1.136,0.477
		C90.39,9.827,79.845,5.61,74.038,9.729c-2.818,1.998-4.113,5.719-3.846,11.056c0.084,1.688,1.152,7.706,2.979,13.69
		c2.111,6.918,4.506,11.279,6.57,11.969c0.316,0.105,1.279,0.427,2.674-1.251c2.68-3.224,5.142-5.797,5.166-5.821
		c0.333-0.348,0.884-0.359,1.231-0.027c0.347,0.333,0.359,0.884,0.026,1.231c-0.023,0.024-2.445,2.558-5.084,5.731
		C82.489,47.828,81.272,48.275,80.28,48.275z"/>
	<path fill="#FFFFFF" d="M115.329,41.487c-0.166,0-0.336-0.047-0.484-0.148c-0.4-0.269-0.506-0.81-0.236-1.209
		c7.488-11.112,10.128-24.526,7.885-27.394c-2.825-3.61-6.814-5.496-11.857-5.607c-3.732-0.082-6.715,0.872-7.205,1.039
		c-0.041,0.021-0.084,0.037-0.129,0.053c-0.529,0.166-0.935-0.125-1.088-0.465c-0.182-0.401-0.032-0.877,0.345-1.105
		c0.326-0.197,3.755-1.312,7.859-1.269c5.628,0.062,10.278,2.232,13.446,6.281c0.785,1.004,1.167,2.646,1.133,4.885
		c-0.032,2.037-0.416,4.538-1.111,7.23c-1.518,5.876-4.373,12.19-7.833,17.325C115.884,41.353,115.61,41.487,115.329,41.487z"/>
	<path fill="#FFFFFF" d="M115.714,46.639c-1.294,0-2.456-0.182-3.152-0.598c-0.732-0.439-0.873-1.04-0.891-1.357
		c-0.189-3.341,1.598-4.003,2.59-4.289c-0.126-0.181-0.292-0.389-0.463-0.602c-0.559-0.697-1.322-1.653-1.914-3.084
		c-0.09-0.219-0.377-0.734-0.709-1.33c-1.812-3.252-5.586-10.02-3.148-13.505c1.121-1.602,3.334-2.244,6.585-1.913
		c-0.433-1.285-1.517-3.666-3.517-6.031c-2.322-2.744-6.436-6.035-12.852-6.142c-3.265-0.053-5.934,0.947-7.94,2.976
		c-4.504,4.549-4.341,12.787-4.338,12.869c0.012,0.48-0.367,0.881-0.848,0.894c-0.481,0.01-0.881-0.367-0.894-0.849
		c-0.01-0.367-0.181-9.069,4.842-14.14c2.354-2.378,5.453-3.558,9.208-3.491c6.998,0.114,11.502,3.672,14.049,6.637
		c2.775,3.231,4.137,6.8,4.25,7.992c0.09,0.957-0.646,1.138-0.73,1.154l-0.314,0.008c-3.975-0.637-5.496,0.212-6.072,1.035
		c-1.812,2.593,1.729,8.944,3.242,11.657c0.389,0.697,0.67,1.2,0.799,1.514c0.496,1.201,1.143,2.011,1.664,2.66
		c0.462,0.579,0.863,1.079,1.01,1.675c0.078,0.127,1.049,1.439,6.499,0.314c1.435-0.296,2.297-0.035,2.565,0.776
		c0.517,1.565-2.338,3.368-3.92,4.103C119.905,46.226,117.661,46.639,115.714,46.639z M113.407,44.516
		c0.211,0.172,1.111,0.453,2.88,0.369c1.601-0.074,3.286-0.425,4.294-0.893c1.17-0.544,1.996-1.15,2.479-1.601
		c-0.012,0.003-0.025,0.005-0.039,0.008c-3.578,0.739-6.113,0.638-7.535-0.3c-0.088-0.059-0.169-0.12-0.244-0.18
		c-0.118,0.042-0.242,0.076-0.367,0.112C114.067,42.258,113.308,42.473,113.407,44.516z"/>
	<path fill="#FFFFFF" d="M90.34,49.111L90.34,49.111c-0.89,0-1.825-0.12-2.782-0.359c-0.277-0.068-2.702-0.721-2.67-2.271
		c0.03-1.419,2.055-1.836,2.817-1.993c2.68-0.552,2.853-0.771,3.686-1.829c0.247-0.314,0.554-0.703,0.974-1.172
		c0.633-0.708,1.328-1.068,2.064-1.068c0.513,0,0.929,0.172,1.205,0.286c0.88,0.366,1.615,1.245,1.916,2.298
		c0.272,0.953,0.142,1.871-0.369,2.584C95.534,47.894,93.168,49.111,90.34,49.111z M86.819,46.562
		c0.252,0.171,0.684,0.38,1.162,0.499c0.818,0.205,1.612,0.309,2.359,0.309c2.273,0,4.097-0.941,5.423-2.797
		c0.264-0.368,0.183-0.843,0.111-1.092c-0.151-0.528-0.524-1.009-0.908-1.168c-0.21-0.086-0.384-0.153-0.538-0.153
		c-0.219,0-0.477,0.164-0.766,0.487c-0.382,0.429-0.66,0.778-0.903,1.089c-1.063,1.351-1.55,1.809-4.703,2.457
		C87.406,46.327,87.03,46.462,86.819,46.562z"/>
	<path fill="#FFFFFF" d="M92.888,42.902c-0.423,0-0.793-0.31-0.859-0.74c-0.018-0.115-0.031-0.232-0.038-0.35
		c-2.047-0.054-4.019-0.939-5.519-2.504c-1.915-1.998-2.786-4.764-2.39-7.592c0.425-3.041,0.266-5.727,0.18-7.169
		c-0.023-0.403-0.041-0.696-0.04-0.898c0.001-0.265,0.006-0.972,2.302-2.134c0.808-0.409,2.428-1.124,4.199-1.308
		c2.954-0.308,4.902,1.011,5.485,3.71c1.559,7.204,0.123,10.392-0.925,12.72c-0.194,0.431-0.377,0.839-0.524,1.232l-0.129,0.349
		c-0.549,1.472-1.023,2.741-0.879,3.679c0.073,0.476-0.254,0.921-0.729,0.993C92.977,42.897,92.932,42.902,92.888,42.902z
		 M85.971,23.903c0.006,0.146,0.018,0.33,0.03,0.541c0.089,1.502,0.255,4.301-0.194,7.515c-0.321,2.295,0.379,4.534,1.922,6.144
		c1.214,1.266,2.809,1.966,4.449,1.972c0.189-0.773,0.492-1.588,0.819-2.465l0.129-0.346c0.167-0.449,0.362-0.882,0.568-1.341
		c1.001-2.224,2.248-4.994,0.811-11.637c-0.278-1.284-0.945-2.029-2.041-2.281C90.063,21.456,86.698,23.26,85.971,23.903z"/>
	<g>
		<path fill="#FFFFFF" d="M90.765,23.531c-0.04,0.285,0.522,1.044,1.255,1.146c0.731,0.102,1.358-0.492,1.397-0.777
			s-0.522-0.6-1.255-0.7C91.431,23.097,90.804,23.246,90.765,23.531L90.765,23.531z"/>
		<path fill="#FFFFFF" d="M92.188,24.98c-0.069,0-0.14-0.006-0.208-0.016c-0.46-0.064-0.926-0.354-1.243-0.774
			c-0.113-0.149-0.296-0.438-0.259-0.7c0.052-0.384,0.513-0.613,1.233-0.613c0.159,0,0.325,0.013,0.491,0.035
			c0.39,0.054,0.751,0.167,1.019,0.315c0.47,0.263,0.505,0.56,0.483,0.714C93.646,24.358,92.983,24.98,92.188,24.98z M91.056,23.588
			c0.036,0.18,0.455,0.726,1.004,0.803c0.042,0.005,0.085,0.008,0.128,0.008c0.493,0,0.875-0.374,0.936-0.521
			c-0.063-0.092-0.398-0.306-1.001-0.39c-0.141-0.019-0.279-0.03-0.411-0.03C91.332,23.457,91.117,23.539,91.056,23.588z"/>
	</g>
	<g>
		<path fill="#FFFFFF" d="M113.046,22.949c0.041,0.285-0.521,1.046-1.254,1.147s-1.357-0.492-1.398-0.777
			c-0.039-0.285,0.523-0.598,1.256-0.701C112.382,22.517,113.007,22.666,113.046,22.949L113.046,22.949z"/>
		<path fill="#FFFFFF" d="M111.624,24.253c-0.711,0-1.324-0.554-1.375-0.913c-0.058-0.434,0.65-0.764,1.379-0.864
			c0.16-0.022,0.319-0.034,0.471-0.034c0.631,0,1.049,0.187,1.092,0.488c0.027,0.195-0.121,0.494-0.376,0.763
			c-0.167,0.177-0.521,0.481-1.003,0.548C111.751,24.248,111.687,24.253,111.624,24.253z M112.099,22.731
			c-0.139,0-0.283,0.011-0.43,0.03c-0.766,0.107-1.148,0.412-1.131,0.538c0.023,0.17,0.482,0.663,1.086,0.663
			c0.049,0,0.1-0.004,0.148-0.011c0.394-0.054,0.689-0.312,0.832-0.46c0.221-0.232,0.309-0.449,0.299-0.523
			C112.89,22.873,112.625,22.731,112.099,22.731z"/>
	</g>
	<path fill="#FFFFFF" d="M114.102,39.368c-0.167,0-0.335-0.049-0.483-0.147c-0.4-0.269-0.507-0.81-0.239-1.209
		c1.702-2.542,1.39-5.142,1.087-7.657c-0.129-1.078-0.264-2.195-0.229-3.268c0.035-1.103,0.176-2.013,0.311-2.89
		c0.159-1.036,0.31-2.016,0.248-3.173c-0.027-0.481,0.342-0.892,0.822-0.916c0.48-0.026,0.891,0.342,0.916,0.821
		c0.072,1.34-0.1,2.454-0.266,3.531c-0.127,0.828-0.258,1.684-0.29,2.682c-0.03,0.941,0.089,1.943,0.217,3.004
		c0.325,2.698,0.692,5.757-1.369,8.835C114.659,39.231,114.382,39.368,114.102,39.368z"/>
	<path fill="none" stroke="#FFFFFF" stroke-width="3" stroke-linecap="round" stroke-linejoin="round" d="M66.654,12.145"/>
</g>
</svg>
