<?xml version="1.0" encoding="utf-8"?>
<!-- Generator: Adobe Illustrator 16.0.0, SVG Export Plug-In . SVG Version: 6.00 Build 0)  -->
<!DOCTYPE svg PUBLIC "-//W3C//DTD SVG 1.1//EN" "http://www.w3.org/Graphics/SVG/1.1/DTD/svg11.dtd">
<svg version="1.1" id="Layer_1" xmlns="http://www.w3.org/2000/svg" xmlns:xlink="http://www.w3.org/1999/xlink" x="0px" y="0px"
	 width="200px" height="70px" viewBox="0 0 200 70" enable-background="new 0 0 200 70" xml:space="preserve">
<g transform="translate(-166.32586,-222.11295)">
	<path fill="#646567" d="M274.386,246.779c0,1.348-1.109,2.55-2.553,2.55c-1.107,0-2.069,0.29-2.889,0.916
		c-0.913,0.578-1.636,1.396-2.213,2.31c-1.156,1.541-1.732,3.369-1.974,4.043v9.146c0,1.396-1.203,2.552-2.647,2.552
		c-1.396,0-2.551-1.156-2.551-2.552v-18.965c0-1.396,1.155-2.504,2.551-2.504c1.444,0,2.647,1.108,2.647,2.504v0.337
		c0.289-0.337,0.674-0.722,1.011-0.963c1.589-1.059,3.658-1.925,6.064-1.878C273.277,244.275,274.386,245.382,274.386,246.779z"/>
	<path fill="#646567" d="M272.974,256.262c0.049-6.547,5.15-12.034,11.745-12.034c6.258,0,11.215,4.668,11.6,11.167v0.241
		c0,0.096,0,0.336-0.048,0.433c-0.146,1.156-1.155,1.926-2.503,1.926h-15.307c0.24,1.107,0.77,2.358,1.636,3.177
		c1.013,1.156,2.937,2.021,4.622,2.166c1.732,0.144,3.802-0.29,5.005-1.203c1.012-1.06,2.985-0.915,3.611-0.145
		c0.625,0.674,1.106,2.117,0,3.129c-2.359,2.165-5.2,3.177-8.617,3.177C278.125,268.248,273.023,262.808,272.974,256.262z
		 M278.22,253.903h13.622c-0.481-1.925-2.936-4.765-7.123-5.102C280.628,248.993,278.605,251.93,278.22,253.903z"/>
	<path fill="#646567" d="M320.841,265.697c0,1.396-1.154,2.6-2.599,2.6c-1.299,0-2.31-0.914-2.551-2.069
		c-1.828,1.251-4.14,2.069-6.547,2.069c-6.497,0-11.696-5.488-11.696-11.986c0-6.595,5.199-12.082,11.696-12.082
		c2.358,0,4.669,0.77,6.451,2.021v-9.048c0-1.396,1.155-2.6,2.646-2.6c1.444,0,2.599,1.203,2.599,2.6v19.061v0.048V265.697
		L320.841,265.697z M309.144,249.475c-1.732,0-3.321,0.721-4.523,1.973c-1.204,1.205-1.925,2.937-1.925,4.862
		c0,1.829,0.721,3.562,1.925,4.765c1.202,1.253,2.791,1.975,4.523,1.975c1.781,0,3.322-0.722,4.525-1.975
		c1.203-1.203,1.926-2.936,1.926-4.765c0-1.925-0.723-3.658-1.926-4.862C312.466,250.196,310.925,249.475,309.144,249.475z"/>
	<path fill="#646567" d="M330.002,238.211c0,1.445-1.107,2.647-2.6,2.647c-1.445,0-2.599-1.202-2.599-2.647V237.2
		c0-1.444,1.153-2.6,2.599-2.6c1.492,0,2.6,1.156,2.6,2.6V238.211L330.002,238.211z M330.002,246.924v18.772
		c0,1.444-1.107,2.6-2.6,2.6c-1.445,0-2.599-1.155-2.599-2.6v-18.772c0-1.541,1.153-2.648,2.599-2.648
		C328.894,244.276,330.002,245.383,330.002,246.924z"/>
	<path fill="#646567" d="M333.308,261.41c0.867-1.155,2.551-1.299,3.611-0.384c1.251,1.058,3.417,2.165,5.294,2.117
		c1.3,0,2.503-0.434,3.274-0.914c0.673-0.578,0.866-1.059,0.866-1.445c0-0.24-0.05-0.336-0.146-0.48
		c-0.048-0.145-0.24-0.337-0.626-0.577c-0.675-0.482-2.117-1.012-3.85-1.349h-0.049c-1.493-0.289-2.938-0.674-4.188-1.252
		c-1.299-0.625-2.456-1.491-3.321-2.792c-0.529-0.866-0.819-1.925-0.819-3.032c0-2.214,1.253-4.092,2.842-5.295
		c1.684-1.156,3.706-1.781,5.92-1.781c3.321,0,5.68,1.589,7.22,2.647c1.155,0.771,1.492,2.359,0.771,3.562
		c-0.771,1.156-2.359,1.492-3.562,0.674c-1.539-1.011-2.887-1.781-4.428-1.781c-1.204,0-2.263,0.385-2.888,0.866
		c-0.626,0.434-0.771,0.866-0.771,1.106c0,0.193,0,0.242,0.097,0.385c0.049,0.096,0.192,0.289,0.529,0.481
		c0.626,0.434,1.878,0.867,3.516,1.156l0.047,0.048h0.049c1.588,0.288,3.08,0.723,4.476,1.396c1.3,0.579,2.6,1.492,3.419,2.84
		c0.577,0.962,0.914,2.07,0.914,3.177c0,2.358-1.3,4.332-3.033,5.584c-1.732,1.203-3.899,1.926-6.258,1.926
		c-3.753-0.049-6.642-1.782-8.567-3.322C332.587,264.105,332.443,262.468,333.308,261.41L333.308,261.41z"/>
	<path fill="#A42122" d="M242.029,271.836c-3.382,1.763-20.899,8.965-24.628,10.909c-3.729,1.945-5.801,1.926-8.747,0.517
		c-2.946-1.407-21.587-8.938-24.945-10.544c-1.678-0.801-2.561-1.479-2.561-2.117v-6.405c0,0,24.269-5.284,28.187-6.689
		s5.277-1.455,8.611-0.234c3.334,1.222,23.271,4.818,26.566,6.024c0,0-0.001,5.722-0.001,6.315
		C244.51,270.245,243.75,270.939,242.029,271.836L242.029,271.836z"/>
	<path fill="#D82F27" d="M242.029,265.429c-3.382,1.762-20.899,8.965-24.628,10.908c-3.729,1.944-5.801,1.926-8.747,0.517
		c-2.946-1.407-21.587-8.938-24.945-10.542c-3.358-1.605-3.428-2.71-0.129-4.002c3.298-1.291,21.837-8.565,25.755-9.971
		s5.277-1.457,8.611-0.235c3.335,1.222,20.748,8.153,24.042,9.359C245.283,262.672,245.41,263.666,242.029,265.429L242.029,265.429z
		"/>
	<path fill="#A42122" d="M242.029,261.391c-3.382,1.762-20.899,8.965-24.628,10.909s-5.801,1.926-8.747,0.518
		c-2.946-1.409-21.587-8.939-24.945-10.544c-1.678-0.803-2.561-1.478-2.561-2.118v-6.406c0,0,24.269-5.282,28.187-6.688
		c3.918-1.405,5.277-1.457,8.611-0.235c3.334,1.221,23.271,4.817,26.566,6.025c0,0-0.001,5.72-0.001,6.313
		C244.51,259.799,243.75,260.495,242.029,261.391z"/>
	<path fill="#D82F27" d="M242.029,254.984c-3.382,1.763-20.899,8.965-24.628,10.909s-5.801,1.926-8.747,0.518
		c-2.946-1.407-21.587-8.938-24.945-10.544c-3.358-1.604-3.428-2.708-0.129-4c3.298-1.292,21.837-8.566,25.755-9.971
		c3.918-1.405,5.277-1.457,8.611-0.235c3.335,1.221,20.748,8.151,24.042,9.358C245.283,252.226,245.41,253.222,242.029,254.984
		L242.029,254.984z"/>
	<path fill="#A42122" d="M242.029,250.559c-3.382,1.763-20.899,8.965-24.628,10.911c-3.729,1.944-5.801,1.925-8.747,0.517
		c-2.946-1.407-21.587-8.938-24.945-10.543c-1.678-0.803-2.561-1.479-2.561-2.118v-6.406c0,0,24.269-5.283,28.187-6.688
		c3.918-1.406,5.277-1.457,8.611-0.235c3.334,1.221,23.271,4.817,26.566,6.025c0,0-0.001,5.721-0.001,6.314
		C244.51,248.968,243.75,249.663,242.029,250.559z"/>
	<path fill="#D82F27" d="M242.029,244.152c-3.382,1.763-20.899,8.966-24.628,10.911s-5.801,1.925-8.747,0.517
		s-21.587-8.938-24.945-10.542c-3.358-1.605-3.428-2.711-0.129-4.003c3.298-1.291,21.837-8.564,25.755-9.97
		c3.918-1.406,5.277-1.457,8.611-0.235c3.335,1.221,20.748,8.151,24.042,9.359C245.283,241.395,245.41,242.391,242.029,244.152
		L242.029,244.152z"/>
	<polygon fill="#FFFFFF" points="221.132,237.984 215.642,238.554 214.412,241.511 212.427,238.211 206.087,237.641 
		210.818,235.935 209.399,233.317 213.828,235.049 218.004,233.683 216.875,236.39 	"/>
	<polygon fill="#FFFFFF" points="214.085,252.333 203.838,248.082 218.521,245.828 	"/>
	<ellipse fill="#FFFFFF" cx="199.879" cy="242.67" rx="7.847" ry="3.042"/>
	<polygon fill="#791514" points="227.621,238.792 236.311,242.226 227.628,245.658 	"/>
	<polygon fill="#AD2524" points="218.007,242.595 227.621,238.792 227.628,245.658 226.686,246.026 	"/>
</g>
</svg>
